<svg xmlns="http://www.w3.org/2000/svg" fill="none" viewBox="0 0 171 171" height="171" width="171">
<circle fill="#152238" r="85.5" cy="85.5" cx="85.5"></circle>
<g clip-path="url(#clip0_11_53201)">
<path fill="white" d="M111.75 92.9531V115.875H81.1875V92.9531H88.8281V85.3125H104.109V92.9531H111.75ZM92.6484 92.9531H100.289V89.1328H92.6484V92.9531ZM107.93 104.414H104.109V108.234H100.289V104.414H92.6484V108.234H88.8281V104.414H85.0078V112.055H107.93V104.414ZM107.93 96.7734H85.0078V100.594H107.93V96.7734ZM97.3343 81.4921C96.2598 80.2784 94.9864 79.3432 93.514 78.6866C92.0416 78.03 90.4796 77.6917 88.8281 77.6718C87.2363 77.6718 85.754 77.9703 84.381 78.5672C83.0081 79.1641 81.7944 79.9799 80.7398 81.0146C79.6852 82.0493 78.8595 83.273 78.2626 84.6857C77.6656 86.0984 77.3672 87.5808 77.3672 89.1328C77.3672 90.9633 76.9593 92.6845 76.1435 94.2962C75.3277 95.9079 74.1736 97.2609 72.6813 98.3552C73.5767 98.8129 74.4124 99.3402 75.1884 99.9371C75.9644 100.534 76.6907 101.211 77.3672 101.967V112.055C77.3672 110.483 77.0687 109 76.4718 107.608C75.8749 106.215 75.0591 105.001 74.0244 103.966C72.9897 102.932 71.7661 102.106 70.3533 101.489C68.9406 100.872 67.4583 100.574 65.9062 100.594C64.3145 100.594 62.8321 100.892 61.4592 101.489C60.0862 102.086 58.8725 102.902 57.8179 103.936C56.7634 104.971 55.9376 106.195 55.3407 107.608C54.7438 109.02 54.4453 110.503 54.4453 112.055H50.625C50.625 110.602 50.824 109.199 51.2219 107.846C51.6199 106.493 52.187 105.21 52.9232 103.996C53.6594 102.782 54.5547 101.708 55.6093 100.773C56.6639 99.8376 57.8378 99.0318 59.1312 98.3552C57.6588 97.2808 56.5146 95.9377 55.6989 94.326C54.8831 92.7143 54.4652 90.9832 54.4453 89.1328C54.4453 87.5609 54.7438 86.0785 55.3407 84.6857C55.9376 83.2929 56.7534 82.0791 57.7881 81.0445C58.8228 80.0098 60.0365 79.184 61.4293 78.5672C62.8221 77.9504 64.3145 77.6519 65.9062 77.6718C67.7368 77.6718 69.4579 78.0797 71.0696 78.8955C72.6813 79.7113 74.0344 80.8654 75.1287 82.3577C75.8848 80.8654 76.8499 79.5322 78.0238 78.3583C79.1978 77.1843 80.5408 76.2094 82.053 75.4334C80.5806 74.3589 79.4365 73.0158 78.6207 71.4041C77.8049 69.7924 77.3871 68.0614 77.3672 66.2109C77.3672 64.639 77.6656 63.1566 78.2626 61.7638C78.8595 60.371 79.6753 59.1572 80.71 58.1226C81.7446 57.0879 82.9584 56.2622 84.3512 55.6453C85.744 55.0285 87.2363 54.7301 88.8281 54.75C90.4 54.75 91.8824 55.0484 93.2752 55.6453C94.668 56.2423 95.8818 57.0581 96.9164 58.0927C97.9511 59.1274 98.7769 60.3511 99.3937 61.7638C100.01 63.1765 100.309 64.6589 100.289 66.2109C100.289 68.0415 99.8812 69.7626 99.0654 71.3743C98.2496 72.986 97.0955 74.339 95.6032 75.4334C96.9562 76.1099 98.1799 76.9555 99.2743 77.9703C100.369 78.9851 101.294 80.159 102.05 81.4921H97.3343ZM65.9062 96.7734C66.9608 96.7734 67.9457 96.5744 68.861 96.1765C69.7763 95.7785 70.5921 95.2313 71.3084 94.5349C72.0247 93.8385 72.5719 93.0327 72.95 92.1174C73.328 91.2021 73.527 90.2072 73.5469 89.1328C73.5469 88.0782 73.3479 87.0933 72.95 86.178C72.552 85.2627 72.0048 84.4469 71.3084 83.7306C70.612 83.0143 69.8062 82.4671 68.8909 82.0891C67.9756 81.711 66.9807 81.512 65.9062 81.4921C64.8517 81.4921 63.8668 81.6911 62.9515 82.0891C62.0362 82.487 61.2204 83.0342 60.5041 83.7306C59.7878 84.427 59.2406 85.2329 58.8625 86.1481C58.4845 87.0634 58.2855 88.0583 58.2656 89.1328C58.2656 90.1873 58.4646 91.1723 58.8625 92.0875C59.2605 93.0028 59.8077 93.8186 60.5041 94.5349C61.2005 95.2512 62.0063 95.7984 62.9216 96.1765C63.8369 96.5545 64.8318 96.7535 65.9062 96.7734ZM81.1875 66.2109C81.1875 67.2655 81.3865 68.2504 81.7844 69.1657C82.1824 70.0809 82.7296 70.8967 83.426 71.6131C84.1224 72.3294 84.9282 72.8765 85.8435 73.2546C86.7588 73.6326 87.7537 73.8316 88.8281 73.8515C89.8827 73.8515 90.8676 73.6525 91.7829 73.2546C92.6982 72.8566 93.514 72.3095 94.2303 71.6131C94.9466 70.9166 95.4938 70.1108 95.8718 69.1955C96.2499 68.2802 96.4489 67.2854 96.4688 66.2109C96.4688 65.1563 96.2698 64.1714 95.8718 63.2561C95.4739 62.3408 94.9267 61.525 94.2303 60.8087C93.5339 60.0924 92.728 59.5452 91.8127 59.1672C90.8975 58.7891 89.9026 58.5902 88.8281 58.5703C87.7736 58.5703 86.7886 58.7692 85.8734 59.1672C84.9581 59.5651 84.1423 60.1123 83.426 60.8087C82.7097 61.5051 82.1625 62.311 81.7844 63.2263C81.4064 64.1416 81.2074 65.1364 81.1875 66.2109Z"></path>
</g>
<defs>
<clipPath id="clip0_11_53201">
<rect transform="translate(50.625 54.75)" fill="white" height="61.125" width="61.125"></rect>
</clipPath>
</defs>
</svg>
