<svg xmlns="http://www.w3.org/2000/svg" fill="none" viewBox="0 0 171 171" height="171" width="171">
<circle fill="#152238" r="85.5" cy="85.5" cx="85.5"></circle>
<path fill="white" d="M93.5735 80.5C96.23 80.5 98.386 82.656 98.386 85.3125V98.3723C98.386 101.655 97.0819 104.803 94.7606 107.125C92.4394 109.446 89.291 110.75 86.0083 110.75C82.7255 110.75 79.5771 109.446 77.2559 107.125C74.9346 104.803 73.6305 101.655 73.6305 98.3723V85.3125C73.6305 82.656 75.7837 80.5 78.443 80.5H93.5735ZM93.5735 84.625H78.443C78.2607 84.625 78.0858 84.6974 77.9569 84.8264C77.8279 84.9553 77.7555 85.1302 77.7555 85.3125V98.3723C77.7555 100.561 78.625 102.66 80.1727 104.208C81.7204 105.756 83.8195 106.625 86.0083 106.625C88.197 106.625 90.2961 105.756 91.8438 104.208C93.3915 102.66 94.261 100.561 94.261 98.3723V85.3125C94.261 85.1302 94.1886 84.9553 94.0596 84.8264C93.9307 84.6974 93.7558 84.625 93.5735 84.625ZM63.3125 80.5H72.6103C71.64 81.6717 71.0475 83.1099 70.9108 84.625H63.3125C63.1302 84.625 62.9553 84.6974 62.8264 84.8264C62.6974 84.9553 62.625 85.1302 62.625 85.3125V94.2472C62.6248 95.2864 62.8601 96.3121 63.3132 97.2473C63.7664 98.1825 64.4255 99.0029 65.2412 99.6468C66.0568 100.291 67.0078 100.741 68.0226 100.965C69.0374 101.189 70.0897 101.179 71.1005 100.938C71.3342 102.324 71.7605 103.647 72.3462 104.876C70.7163 105.312 69.0078 105.367 67.3531 105.038C65.6983 104.708 64.1415 104.002 62.8031 102.975C61.4646 101.947 60.3804 100.626 59.6343 99.1126C58.8881 97.5992 58.5 95.9345 58.5 94.2472V85.3125C58.5 82.656 60.656 80.5 63.3125 80.5ZM99.4062 80.5H108.688C111.344 80.5 113.5 82.656 113.5 85.3125V94.25C113.5 95.9362 113.113 97.5999 112.368 99.1126C111.623 100.625 110.54 101.946 109.203 102.974C107.866 104.002 106.311 104.708 104.658 105.039C103.004 105.369 101.297 105.316 99.6675 104.881C100.256 103.649 100.682 102.327 100.919 100.941C101.928 101.179 102.979 101.186 103.991 100.961C105.004 100.736 105.952 100.285 106.766 99.6415C107.579 98.9979 108.237 98.1786 108.688 97.2449C109.14 96.3111 109.375 95.2873 109.375 94.25V85.3125C109.375 85.1302 109.303 84.9553 109.174 84.8264C109.045 84.6974 108.87 84.625 108.688 84.625H101.106C100.969 83.1099 100.376 81.6717 99.4062 80.5ZM86 61.25C88.188 61.25 90.2865 62.1192 91.8336 63.6664C93.3808 65.2135 94.25 67.312 94.25 69.5C94.25 71.688 93.3808 73.7865 91.8336 75.3336C90.2865 76.8808 88.188 77.75 86 77.75C83.812 77.75 81.7135 76.8808 80.1664 75.3336C78.6192 73.7865 77.75 71.688 77.75 69.5C77.75 67.312 78.6192 65.2135 80.1664 63.6664C81.7135 62.1192 83.812 61.25 86 61.25ZM103.875 64C105.698 64 107.447 64.7243 108.736 66.0136C110.026 67.303 110.75 69.0516 110.75 70.875C110.75 72.6984 110.026 74.447 108.736 75.7364C107.447 77.0257 105.698 77.75 103.875 77.75C102.052 77.75 100.303 77.0257 99.0136 75.7364C97.7243 74.447 97 72.6984 97 70.875C97 69.0516 97.7243 67.303 99.0136 66.0136C100.303 64.7243 102.052 64 103.875 64ZM68.125 64C69.9484 64 71.697 64.7243 72.9864 66.0136C74.2757 67.303 75 69.0516 75 70.875C75 72.6984 74.2757 74.447 72.9864 75.7364C71.697 77.0257 69.9484 77.75 68.125 77.75C66.3016 77.75 64.553 77.0257 63.2636 75.7364C61.9743 74.447 61.25 72.6984 61.25 70.875C61.25 69.0516 61.9743 67.303 63.2636 66.0136C64.553 64.7243 66.3016 64 68.125 64ZM86 65.375C84.906 65.375 83.8568 65.8096 83.0832 66.5832C82.3096 67.3568 81.875 68.406 81.875 69.5C81.875 70.594 82.3096 71.6432 83.0832 72.4168C83.8568 73.1904 84.906 73.625 86 73.625C87.094 73.625 88.1432 73.1904 88.9168 72.4168C89.6904 71.6432 90.125 70.594 90.125 69.5C90.125 68.406 89.6904 67.3568 88.9168 66.5832C88.1432 65.8096 87.094 65.375 86 65.375ZM103.875 68.125C103.146 68.125 102.446 68.4147 101.93 68.9305C101.415 69.4462 101.125 70.1457 101.125 70.875C101.125 71.6043 101.415 72.3038 101.93 72.8195C102.446 73.3353 103.146 73.625 103.875 73.625C104.604 73.625 105.304 73.3353 105.82 72.8195C106.335 72.3038 106.625 71.6043 106.625 70.875C106.625 70.1457 106.335 69.4462 105.82 68.9305C105.304 68.4147 104.604 68.125 103.875 68.125ZM68.125 68.125C67.3957 68.125 66.6962 68.4147 66.1805 68.9305C65.6647 69.4462 65.375 70.1457 65.375 70.875C65.375 71.6043 65.6647 72.3038 66.1805 72.8195C66.6962 73.3353 67.3957 73.625 68.125 73.625C68.8543 73.625 69.5538 73.3353 70.0695 72.8195C70.5853 72.3038 70.875 71.6043 70.875 70.875C70.875 70.1457 70.5853 69.4462 70.0695 68.9305C69.5538 68.4147 68.8543 68.125 68.125 68.125Z"></path>
</svg>
