<svg xmlns="http://www.w3.org/2000/svg" fill="none" viewBox="0 0 171 171" height="171" width="171">
<circle fill="#152238" r="85.5" cy="85.5" cx="85.5"></circle>
<g clip-path="url(#clip0_11_53256)">
<path fill="white" d="M51 89.2852C51 93.0365 52.0687 96.5697 54.2061 99.8848C56.3434 103.2 59.2005 105.904 62.7773 107.998C62.6029 108.609 62.4066 109.394 62.1885 110.354C61.9704 111.313 61.665 112.818 61.2725 114.868C60.8799 116.918 60.7272 118.619 60.8145 119.972C60.9017 121.324 61.3379 122 62.123 122C64.7402 122 67.3792 121.302 70.04 119.906C72.7008 118.51 74.8164 117.115 76.3867 115.719C77.957 114.323 78.7858 113.625 78.873 113.625C83.6712 113.625 88.3385 112.709 92.875 110.877C92.3516 110.702 91.3701 110.179 89.9307 109.307C88.4912 108.434 87.597 107.998 87.248 107.998H78.873C77.3027 107.998 75.6452 108.87 73.9004 110.615C71.4577 112.796 69.1458 114.367 66.9648 115.326L67.75 105.25L65.5254 103.287C59.5931 99.4486 56.627 94.7812 56.627 89.2852C56.627 87.8893 56.8887 86.319 57.4121 84.5742C57.0632 84.0508 56.8232 83.2438 56.6924 82.1533C56.5615 81.0628 56.4961 80.0814 56.4961 79.209V76.1992L56.627 74.498C52.8757 78.5111 51 83.4401 51 89.2852ZM90.127 55C82.3626 55 75.7542 57.2682 70.3018 61.8047C64.8493 66.3411 62.123 71.7936 62.123 78.1621C62.123 84.4434 64.8275 89.5905 70.2363 93.6035C75.6452 97.6165 82.2754 99.623 90.127 99.623C90.2142 99.623 91.1084 100.561 92.8096 102.437C94.5107 104.312 96.7572 106.188 99.5488 108.063C102.34 109.939 105.045 110.877 107.662 110.877C108.273 110.877 108.644 110.397 108.774 109.438C108.905 108.478 108.84 107.322 108.578 105.97C108.316 104.618 108.011 103.243 107.662 101.848C107.313 100.452 107.008 99.2741 106.746 98.3145L106.223 96.875C109.799 94.694 112.657 91.9678 114.794 88.6963C116.931 85.4248 118 81.9134 118 78.1621C118 71.7936 115.274 66.3411 109.821 61.8047C104.369 57.2682 97.804 55 90.127 55ZM103.475 92.1641L99.8105 94.3887L101.25 98.5762C101.424 99.0124 101.643 99.7539 101.904 100.801C102.166 101.848 102.428 102.676 102.689 103.287C100.77 101.979 98.502 100.016 95.8848 97.3984C93.8783 95.2174 92.0462 94.127 90.3887 94.127C84.2819 94.127 79.0257 92.7093 74.6201 89.874C70.2145 87.0387 68.0117 83.1348 68.0117 78.1621C67.9245 73.2767 70.04 69.1328 74.3584 65.7305C78.6768 62.3281 83.9329 60.627 90.127 60.627C96.321 60.627 101.577 62.3281 105.896 65.7305C110.214 69.1328 112.373 73.2767 112.373 78.1621C112.373 83.6582 109.407 88.3255 103.475 92.1641Z"></path>
</g>
<defs>
<clipPath id="clip0_11_53256">
<rect transform="translate(51 55)" fill="white" height="67" width="67"></rect>
</clipPath>
</defs>
</svg>
