<svg xmlns="http://www.w3.org/2000/svg" fill="none" viewBox="0 0 171 171" height="171" width="171">
<circle fill="#152238" r="85.5" cy="85.5" cx="85.5"></circle>
<path stroke-linejoin="round" stroke-linecap="round" stroke-width="4.75" stroke="white" d="M65.6875 78V88.6875M101.312 78V88.6875M59.75 64.9375H107.25V74.4375L105.59 75.435C104.298 76.2101 102.82 76.6196 101.313 76.6196C99.8065 76.6196 98.3282 76.2101 97.0363 75.435L95.375 74.4375L93.7149 75.435C92.423 76.2101 90.9447 76.6196 89.4381 76.6196C87.9315 76.6196 86.4532 76.2101 85.1613 75.435L83.5 74.4375L81.8399 75.435C80.5478 76.2104 79.0693 76.62 77.5625 76.62C76.0557 76.62 74.5772 76.2104 73.2851 75.435L71.625 74.4375L69.9637 75.435C68.6719 76.2099 67.1939 76.6193 65.6875 76.6193C64.1811 76.6193 62.7031 76.2099 61.4113 75.435L59.75 74.4375V64.9375ZM62.125 88.6875H104.875V110.062H62.125V88.6875Z"></path>
</svg>
