<svg xmlns="http://www.w3.org/2000/svg" fill="none" viewBox="0 0 171 171" height="171" width="171">
<circle fill="#152238" r="85.5" cy="85.5" cx="85.5"></circle>
<g clip-path="url(#clip0_11_53261)">
<path fill="white" d="M111.25 115.682H107C107 112.167 104.14 109.307 100.625 109.307H92.125C88.6102 109.307 85.75 112.167 85.75 115.682H81.5C81.5 109.823 86.2664 105.057 92.125 105.057H100.625C106.484 105.057 111.25 109.823 111.25 115.682ZM79.375 85.9316C78.8114 85.9316 78.2709 86.1555 77.8724 86.554C77.4739 86.9526 77.25 87.4931 77.25 88.0566V100.807H81.5V88.0566C81.5 87.4931 81.2761 86.9526 80.8776 86.554C80.4791 86.1555 79.9386 85.9316 79.375 85.9316Z"></path>
<path fill="white" d="M115.5 77.4316H77.25V81.6816H85.75V92.3066C85.75 98.1653 90.5164 102.932 96.375 102.932C102.234 102.932 107 98.1653 107 92.3066V81.6816H115.5V77.4316ZM96.375 98.6816C92.8602 98.6816 90 95.8214 90 92.3066V90.1816H102.75V92.3066C102.75 95.8214 99.8897 98.6816 96.375 98.6816ZM102.75 85.9316H90V81.6816H102.75V85.9316Z"></path>
<path fill="white" d="M102.321 73.1817C100.349 63.4938 91.7637 56.1817 81.5 56.1817C76.5535 56.1725 71.7595 57.8931 67.9478 61.0458C64.1362 64.1985 61.5469 68.5847 60.6282 73.4452C53.1419 74.7839 47.5 81.3608 47.5 89.1192C47.5 97.9082 54.6506 105.057 63.4375 105.057H73V100.807H63.4375C60.3388 100.803 57.368 99.5709 55.1769 97.3798C52.9858 95.1887 51.7534 92.2179 51.75 89.1192C51.7588 86.1622 52.8861 83.3181 54.9054 81.158C56.9248 78.9979 59.6867 77.6819 62.6364 77.4742L64.4129 77.3531L64.6041 75.5829C65.0505 71.4161 67.024 67.5621 70.1439 64.7643C73.2639 61.9665 77.3093 60.4231 81.5 60.4317C89.405 60.4317 96.0456 65.8611 97.9411 73.1817H102.321Z"></path>
</g>
<defs>
<clipPath id="clip0_11_53261">
<rect transform="translate(47.5 51.9316)" fill="white" height="68" width="68"></rect>
</clipPath>
</defs>
</svg>
